<svg xmlns="http://www.w3.org/2000/svg" viewBox="0 0 64 64"><title>qibla</title><g id="Layer_13" data-name="Layer 13"><path d="M44.12012,43.68994a.37421.37421,0,0,1-.3042.43408l-.98487.17334a.37481.37481,0,0,1-.12988-.73828l.98487-.17334A.37485.37485,0,0,1,44.12012,43.68994Zm-8.56787,1.12988-1.78711.315a.37481.37481,0,1,0,.12988.73828l1.78711-.31494a.37481.37481,0,0,0-.12988-.73829Zm-4.46778.7876-1.78759.31543a.37481.37481,0,1,0,.12988.73828l1.7876-.31543a.37481.37481,0,0,0-.12989-.73828Zm8.936-1.57568-1.78711.31494a.37481.37481,0,1,0,.12988.73828L40.15039,44.77a.37481.37481,0,0,0-.12988-.73828Zm-13.4043,2.36377-.98486.17334a.37481.37481,0,1,0,.12988.73828l.98486-.17334a.37481.37481,0,0,0-.12988-.73828ZM32.14,29.47l9.67.4-.55-3.11a.50054.50054,0,0,0-.47-.41l-9.36-.38H31.42a.23487.23487,0,0,0-.08.02.295.295,0,0,0-.13.02l-8.68,3.56a.50526.50526,0,0,0-.31.55l.55,3.1,8.95-3.67A1.01333,1.01333,0,0,1,32.14,29.47Zm11,10.84a.55833.55833,0,0,0,.33-.21.53523.53523,0,0,0,.08-.37l-1.39-7.85L32.28,31.48l-9.16,3.75,1.39,7.86a.48944.48944,0,0,0,.49.41.27677.27677,0,0,0,.09-.01l9.03-1.59ZM62.12,32A30.12,30.12,0,1,1,32,1.88,30.15184,30.15184,0,0,1,62.12,32Zm-5.64,1h-.86a1,1,0,0,1,0-2h.86a24.43233,24.43233,0,0,0-6.47-15.6l-.6.6A.97833.97833,0,0,1,48,16a.99588.99588,0,0,1,0-1.41l.6-.6A24.43242,24.43242,0,0,0,33,7.52v.86a1,1,0,1,1-2,0V7.52a24.43255,24.43255,0,0,0-15.6,6.47l.6.6A.99588.99588,0,0,1,16,16a.97833.97833,0,0,1-1.41,0l-.6-.6A24.43233,24.43233,0,0,0,7.52,31h.86a1,1,0,1,1,0,2H7.52a24.43217,24.43217,0,0,0,6.47,15.6l.6-.6A.997.997,0,0,1,16,49.41l-.6.6A24.43217,24.43217,0,0,0,31,56.48v-.86a1,1,0,0,1,2,0v.86a24.432,24.432,0,0,0,15.6-6.47l-.6-.6A.997.997,0,0,1,49.41,48l.6.6A24.43217,24.43217,0,0,0,56.48,33ZM27.478,23.67725a1.43461,1.43461,0,0,0,.67529.17138,1.40552,1.40552,0,0,0,.98828-.41162l1.46533-1.43555,1.86133.8462A1.42283,1.42283,0,0,0,34.28418,20.832L30.666,14.67041a1.42284,1.42284,0,0,0-2.626.46338l-1.293,7.03027A1.39909,1.39909,0,0,0,27.478,23.67725Z"/></g></svg>